G04 Layer: TopSilkscreenLayer*
G04 EasyEDA v6.5.22, 2023-02-12 11:26:09*
G04 89482fe2ee7e448c8a158914ca70a71c,57889503967a4714bf52c07adae62c9a,10*
G04 Gerber Generator version 0.2*
G04 Scale: 100 percent, Rotated: No, Reflected: No *
G04 Dimensions in millimeters *
G04 leading zeros omitted , absolute positions ,4 integer and 5 decimal *
%FSLAX45Y45*%
%MOMM*%

%ADD10C,0.1524*%
%ADD11C,0.1219*%
%ADD12C,0.1422*%
%ADD13C,0.0813*%
%ADD14C,0.1016*%
%ADD15C,0.2540*%
%ADD16C,0.2032*%
%ADD17C,0.1270*%
%ADD18C,0.0109*%

%LPD*%
D10*
X6020013Y6910542D02*
G01*
X5911047Y6910542D01*
X6020013Y6910542D02*
G01*
X6020013Y6863806D01*
X6014933Y6848058D01*
X6009853Y6842978D01*
X5999439Y6837644D01*
X5983691Y6837644D01*
X5973277Y6842978D01*
X5968197Y6848058D01*
X5962863Y6863806D01*
X5962863Y6910542D01*
X5999439Y6803354D02*
G01*
X6004519Y6793194D01*
X6020013Y6777446D01*
X5911047Y6777446D01*
X6020013Y6711914D02*
G01*
X6014933Y6727662D01*
X5999439Y6738076D01*
X5973277Y6743156D01*
X5957783Y6743156D01*
X5931875Y6738076D01*
X5916127Y6727662D01*
X5911047Y6711914D01*
X5911047Y6701754D01*
X5916127Y6686006D01*
X5931875Y6675592D01*
X5957783Y6670512D01*
X5973277Y6670512D01*
X5999439Y6675592D01*
X6014933Y6686006D01*
X6020013Y6701754D01*
X6020013Y6711914D01*
X5874725Y6636222D02*
G01*
X5874725Y6542750D01*
X6020013Y6477218D02*
G01*
X6014933Y6487632D01*
X6004519Y6498046D01*
X5994105Y6503126D01*
X5978611Y6508460D01*
X5952703Y6508460D01*
X5936955Y6503126D01*
X5926541Y6498046D01*
X5916127Y6487632D01*
X5911047Y6477218D01*
X5911047Y6456390D01*
X5916127Y6445976D01*
X5926541Y6435562D01*
X5936955Y6430482D01*
X5952703Y6425148D01*
X5978611Y6425148D01*
X5994105Y6430482D01*
X6004519Y6435562D01*
X6014933Y6445976D01*
X6020013Y6456390D01*
X6020013Y6477218D01*
X6020013Y6390858D02*
G01*
X5942289Y6390858D01*
X5926541Y6385778D01*
X5916127Y6375364D01*
X5911047Y6359870D01*
X5911047Y6349456D01*
X5916127Y6333708D01*
X5926541Y6323294D01*
X5942289Y6318214D01*
X6020013Y6318214D01*
X6020013Y6247602D02*
G01*
X5911047Y6247602D01*
X6020013Y6283924D02*
G01*
X6020013Y6211280D01*
X6020013Y6176990D02*
G01*
X5911047Y6176990D01*
X6020013Y6176990D02*
G01*
X6020013Y6130254D01*
X6014933Y6114506D01*
X6009853Y6109426D01*
X5999439Y6104092D01*
X5983691Y6104092D01*
X5973277Y6109426D01*
X5968197Y6114506D01*
X5962863Y6130254D01*
X5962863Y6176990D01*
X6020013Y6069802D02*
G01*
X5942289Y6069802D01*
X5926541Y6064722D01*
X5916127Y6054308D01*
X5911047Y6038814D01*
X5911047Y6028400D01*
X5916127Y6012652D01*
X5926541Y6002238D01*
X5942289Y5997158D01*
X6020013Y5997158D01*
X6020013Y5926546D02*
G01*
X5911047Y5926546D01*
X6020013Y5962868D02*
G01*
X6020013Y5890224D01*
D11*
X2969199Y8218170D02*
G01*
X2913827Y8072881D01*
X2969199Y8218170D02*
G01*
X3024571Y8072881D01*
X2934655Y8121395D02*
G01*
X3003997Y8121395D01*
X3070291Y8218170D02*
G01*
X3070291Y8072881D01*
X3070291Y8218170D02*
G01*
X3167319Y8072881D01*
X3167319Y8218170D02*
G01*
X3167319Y8072881D01*
X3261553Y8218170D02*
G01*
X3261553Y8072881D01*
X3213039Y8218170D02*
G01*
X3310067Y8218170D01*
X3355787Y8218170D02*
G01*
X3355787Y8072881D01*
X3355787Y8218170D02*
G01*
X3445957Y8218170D01*
X3355787Y8149081D02*
G01*
X3411159Y8149081D01*
X3355787Y8072881D02*
G01*
X3445957Y8072881D01*
X3491677Y8218170D02*
G01*
X3491677Y8072881D01*
X3491677Y8218170D02*
G01*
X3588451Y8072881D01*
X3588451Y8218170D02*
G01*
X3588451Y8072881D01*
X3634171Y8218170D02*
G01*
X3634171Y8072881D01*
X3634171Y8218170D02*
G01*
X3731199Y8072881D01*
X3731199Y8218170D02*
G01*
X3731199Y8072881D01*
X3832291Y8218170D02*
G01*
X3776919Y8072881D01*
X3832291Y8218170D02*
G01*
X3887917Y8072881D01*
X3797747Y8121395D02*
G01*
X3867089Y8121395D01*
D12*
X2833817Y6808723D02*
G01*
X2833817Y6639052D01*
X2833817Y6808723D02*
G01*
X2890459Y6808723D01*
X2914589Y6800850D01*
X2930845Y6784594D01*
X2938973Y6768337D01*
X2946847Y6744208D01*
X2946847Y6703821D01*
X2938973Y6679437D01*
X2930845Y6663436D01*
X2914589Y6647179D01*
X2890459Y6639052D01*
X2833817Y6639052D01*
X3000187Y6776465D02*
G01*
X3016443Y6784594D01*
X3040827Y6808723D01*
X3040827Y6639052D01*
X3218627Y6752336D02*
G01*
X3218627Y6639052D01*
X3218627Y6719823D02*
G01*
X3242757Y6744208D01*
X3259013Y6752336D01*
X3283143Y6752336D01*
X3299399Y6744208D01*
X3307527Y6719823D01*
X3307527Y6639052D01*
X3307527Y6719823D02*
G01*
X3331657Y6744208D01*
X3347913Y6752336D01*
X3372043Y6752336D01*
X3388299Y6744208D01*
X3396427Y6719823D01*
X3396427Y6639052D01*
X3449767Y6808723D02*
G01*
X3457641Y6800850D01*
X3465769Y6808723D01*
X3457641Y6816852D01*
X3449767Y6808723D01*
X3457641Y6752336D02*
G01*
X3457641Y6639052D01*
X3519109Y6752336D02*
G01*
X3519109Y6639052D01*
X3519109Y6719823D02*
G01*
X3543493Y6744208D01*
X3559495Y6752336D01*
X3583879Y6752336D01*
X3599881Y6744208D01*
X3608009Y6719823D01*
X3608009Y6639052D01*
X3661349Y6808723D02*
G01*
X3669477Y6800850D01*
X3677605Y6808723D01*
X3669477Y6816852D01*
X3661349Y6808723D01*
X3669477Y6752336D02*
G01*
X3669477Y6639052D01*
D13*
X2377887Y5398515D02*
G01*
X2377887Y5301487D01*
X2377887Y5398515D02*
G01*
X2419543Y5398515D01*
X2433259Y5393689D01*
X2437831Y5389118D01*
X2442657Y5379973D01*
X2442657Y5370829D01*
X2437831Y5361431D01*
X2433259Y5356860D01*
X2419543Y5352287D01*
X2377887Y5352287D01*
X2410145Y5352287D02*
G01*
X2442657Y5301487D01*
X2473137Y5398515D02*
G01*
X2473137Y5301487D01*
X2473137Y5398515D02*
G01*
X2533081Y5398515D01*
X2473137Y5352287D02*
G01*
X2509967Y5352287D01*
X2473137Y5301487D02*
G01*
X2533081Y5301487D01*
X2628077Y5384545D02*
G01*
X2618933Y5393689D01*
X2605217Y5398515D01*
X2586675Y5398515D01*
X2572705Y5393689D01*
X2563561Y5384545D01*
X2563561Y5375402D01*
X2568133Y5366004D01*
X2572705Y5361431D01*
X2582103Y5356860D01*
X2609789Y5347715D01*
X2618933Y5342889D01*
X2623505Y5338318D01*
X2628077Y5329173D01*
X2628077Y5315204D01*
X2618933Y5306060D01*
X2605217Y5301487D01*
X2586675Y5301487D01*
X2572705Y5306060D01*
X2563561Y5315204D01*
X2658557Y5398515D02*
G01*
X2658557Y5301487D01*
X2658557Y5398515D02*
G01*
X2718755Y5398515D01*
X2658557Y5352287D02*
G01*
X2695641Y5352287D01*
X2658557Y5301487D02*
G01*
X2718755Y5301487D01*
X2781493Y5398515D02*
G01*
X2781493Y5301487D01*
X2749235Y5398515D02*
G01*
X2813751Y5398515D01*
D14*
X3158937Y5424170D02*
G01*
X3158937Y5337555D01*
X3164779Y5320029D01*
X3176209Y5308600D01*
X3193481Y5302757D01*
X3205165Y5302757D01*
X3222437Y5308600D01*
X3233867Y5320029D01*
X3239709Y5337555D01*
X3239709Y5424170D01*
X3358581Y5406644D02*
G01*
X3347151Y5418328D01*
X3329879Y5424170D01*
X3306765Y5424170D01*
X3289493Y5418328D01*
X3277809Y5406644D01*
X3277809Y5395213D01*
X3283651Y5383529D01*
X3289493Y5377942D01*
X3300923Y5372100D01*
X3335467Y5360670D01*
X3347151Y5354828D01*
X3352993Y5348986D01*
X3358581Y5337555D01*
X3358581Y5320029D01*
X3347151Y5308600D01*
X3329879Y5302757D01*
X3306765Y5302757D01*
X3289493Y5308600D01*
X3277809Y5320029D01*
X3396681Y5424170D02*
G01*
X3396681Y5302757D01*
X3396681Y5424170D02*
G01*
X3448751Y5424170D01*
X3466023Y5418328D01*
X3471865Y5412486D01*
X3477707Y5401055D01*
X3477707Y5389371D01*
X3471865Y5377942D01*
X3466023Y5372100D01*
X3448751Y5366257D01*
X3396681Y5366257D02*
G01*
X3448751Y5366257D01*
X3466023Y5360670D01*
X3471865Y5354828D01*
X3477707Y5343144D01*
X3477707Y5325871D01*
X3471865Y5314442D01*
X3466023Y5308600D01*
X3448751Y5302757D01*
X3396681Y5302757D01*
D10*
X1615363Y6815152D02*
G01*
X1506143Y6815152D01*
X1615363Y6815152D02*
G01*
X1615363Y6768416D01*
X1610029Y6752668D01*
X1604949Y6747588D01*
X1594535Y6742254D01*
X1579041Y6742254D01*
X1568627Y6747588D01*
X1563293Y6752668D01*
X1558213Y6768416D01*
X1558213Y6815152D01*
X1594535Y6707964D02*
G01*
X1599869Y6697550D01*
X1615363Y6682056D01*
X1506143Y6682056D01*
X1615363Y6616524D02*
G01*
X1610029Y6632272D01*
X1594535Y6642686D01*
X1568627Y6647766D01*
X1552879Y6647766D01*
X1526971Y6642686D01*
X1511477Y6632272D01*
X1506143Y6616524D01*
X1506143Y6606110D01*
X1511477Y6590616D01*
X1526971Y6580202D01*
X1552879Y6575122D01*
X1568627Y6575122D01*
X1594535Y6580202D01*
X1610029Y6590616D01*
X1615363Y6606110D01*
X1615363Y6616524D01*
X1469821Y6540832D02*
G01*
X1469821Y6447106D01*
X1615363Y6412816D02*
G01*
X1506143Y6412816D01*
X1615363Y6378526D02*
G01*
X1506143Y6378526D01*
X1615363Y6378526D02*
G01*
X1506143Y6305882D01*
X1615363Y6305882D02*
G01*
X1506143Y6305882D01*
X1615363Y6271592D02*
G01*
X1506143Y6271592D01*
X1615363Y6271592D02*
G01*
X1615363Y6224856D01*
X1610029Y6209362D01*
X1604949Y6204028D01*
X1594535Y6198948D01*
X1579041Y6198948D01*
X1568627Y6204028D01*
X1563293Y6209362D01*
X1558213Y6224856D01*
X1558213Y6271592D01*
X1615363Y6164658D02*
G01*
X1537385Y6164658D01*
X1521891Y6159324D01*
X1511477Y6148910D01*
X1506143Y6133416D01*
X1506143Y6123002D01*
X1511477Y6107508D01*
X1521891Y6097094D01*
X1537385Y6091760D01*
X1615363Y6091760D01*
X1615363Y6021148D02*
G01*
X1506143Y6021148D01*
X1615363Y6057470D02*
G01*
X1615363Y5984826D01*
D15*
X5853988Y7441384D02*
G01*
X5853988Y5359379D01*
X5853988Y5359379D02*
G01*
X5345988Y5359379D01*
X5853988Y7441387D02*
G01*
X5345988Y7441387D01*
X5345988Y7441387D02*
G01*
X5345988Y5359379D01*
X1453995Y4700193D02*
G01*
X1251455Y4700193D01*
D16*
X1453995Y4899050D02*
G01*
X1453995Y4498390D01*
X1251455Y4498390D01*
X1251455Y4899050D01*
X1453995Y4899050D01*
D15*
X5548528Y4700193D02*
G01*
X5345988Y4700193D01*
D16*
X5548528Y4899050D02*
G01*
X5548528Y4498390D01*
X5345988Y4498390D01*
X5345988Y4899050D01*
X5548528Y4899050D01*
D17*
X2123887Y6883400D02*
G01*
X2187387Y6946900D01*
X2123887Y7010400D01*
X2123887Y7137400D01*
X2187387Y7200900D01*
X2123887Y7264400D01*
X2123887Y7391400D01*
X2187387Y7454900D01*
X2123887Y7518400D01*
X2123887Y7645400D01*
X2187387Y7708900D01*
X2314387Y7708900D01*
X2377887Y7645400D01*
X2377887Y7518400D01*
X2314387Y7454900D01*
X2377887Y7391400D01*
X2377887Y7264400D01*
X2314387Y7200900D01*
X2377887Y7137400D01*
X2377887Y7010400D01*
X2314387Y6946900D01*
X2377887Y6883400D01*
X2377887Y6756400D01*
X2314387Y6692900D01*
X2377887Y6629400D01*
X2377887Y6502400D01*
X2314387Y6438900D01*
X2377887Y6375400D01*
X2377887Y6248400D01*
X2314387Y6184900D01*
X2377887Y6121400D01*
X2377887Y5994400D01*
X2314387Y5930900D01*
X2377887Y5867400D01*
X2377887Y5740400D01*
X2314387Y5676900D01*
X2187387Y5676900D01*
X2123887Y5740400D01*
X2123887Y6756400D02*
G01*
X2187387Y6692900D01*
X2123887Y6629400D01*
X2123887Y6502400D02*
G01*
X2187387Y6438900D01*
X2123887Y6375400D01*
X2123887Y6248400D02*
G01*
X2187387Y6184900D01*
X2123887Y6121400D01*
X2123887Y5994400D02*
G01*
X2187387Y5930900D01*
X2123887Y5867400D01*
X2123887Y7645400D02*
G01*
X2123887Y8343900D01*
X2606487Y8343900D01*
X2606487Y7772400D01*
X4181287Y7772400D01*
X4181287Y6172200D01*
X4181287Y7772400D02*
G01*
X4181287Y8343900D01*
X4663887Y8343900D01*
X4663887Y7645400D01*
X4663887Y7518400D01*
X4663887Y7391400D01*
X4663887Y7264400D01*
X4663887Y7137400D01*
X4663887Y7010400D01*
X4663887Y4914900D01*
X3774887Y4914900D01*
X3774887Y5067300D01*
X3711387Y5067300D01*
X3711387Y5105400D01*
X2123887Y7137400D02*
G01*
X2123887Y7264400D01*
X2123887Y7391400D02*
G01*
X2123887Y7518400D01*
X4663887Y7010400D02*
G01*
X4600387Y6946900D01*
X4663887Y6883400D01*
X4663887Y6756400D02*
G01*
X4600387Y6692900D01*
X4663887Y6629400D01*
X4663887Y6502400D02*
G01*
X4600387Y6438900D01*
X4663887Y6375400D01*
X4663887Y6248400D02*
G01*
X4600387Y6184900D01*
X4663887Y6121400D01*
X4663887Y5994400D02*
G01*
X4600387Y5930900D01*
X4663887Y5867400D01*
X4663887Y5740400D02*
G01*
X4600387Y5676900D01*
X4473387Y5676900D01*
X4409887Y5740400D01*
X4409887Y5867400D01*
X4473387Y5930900D01*
X4409887Y5994400D01*
X4409887Y6121400D01*
X4473387Y6184900D01*
X4409887Y6248400D01*
X4409887Y6375400D01*
X4473387Y6438900D01*
X4409887Y6502400D01*
X4409887Y6629400D01*
X4473387Y6692900D01*
X4409887Y6756400D01*
X4409887Y6883400D01*
X4473387Y6946900D01*
X4409887Y7010400D01*
X4409887Y7137400D01*
X4473387Y7200900D01*
X4409887Y7264400D01*
X4409887Y7391400D01*
X4473387Y7454900D01*
X4409887Y7518400D01*
X4409887Y7645400D01*
X4473387Y7708900D01*
X4600387Y7708900D01*
X4663887Y7645400D01*
X4663887Y7518400D02*
G01*
X4600387Y7454900D01*
X4663887Y7391400D01*
X4663887Y7264400D02*
G01*
X4600387Y7200900D01*
X4663887Y7137400D01*
X2123887Y7010400D02*
G01*
X2123887Y5613400D01*
X2314387Y5613400D01*
X2314387Y5422900D01*
X2314387Y5168900D01*
X2314387Y4914900D01*
X2885887Y4914900D01*
X2885887Y5067300D01*
X2949387Y5067300D01*
X2949387Y5105400D01*
X2314387Y5422900D02*
G01*
X2187387Y5422900D01*
X2187387Y5168900D01*
X2314387Y5168900D01*
X2949387Y5067300D02*
G01*
X2949387Y4978400D01*
X3711387Y4978400D01*
X3711387Y5067300D01*
X3012887Y5613400D02*
G01*
X2949387Y5613400D01*
X2949387Y5549900D01*
X2949387Y5486400D02*
G01*
X2949387Y5422900D01*
X2949387Y5359400D02*
G01*
X2949387Y5295900D01*
X2949387Y5232400D02*
G01*
X2949387Y5168900D01*
X3076387Y5613400D02*
G01*
X3139887Y5613400D01*
X3203387Y5613400D02*
G01*
X3266887Y5613400D01*
X3330387Y5613400D02*
G01*
X3393887Y5613400D01*
X3457387Y5613400D02*
G01*
X3520887Y5613400D01*
X3584387Y5613400D02*
G01*
X3647887Y5613400D01*
X3711387Y5613400D02*
G01*
X3711387Y5549900D01*
X3711387Y5486400D02*
G01*
X3711387Y5422900D01*
X3711387Y5359400D02*
G01*
X3711387Y5295900D01*
X3711387Y5232400D02*
G01*
X3711387Y5168900D01*
X2606487Y8343900D02*
G01*
X2606487Y8369300D01*
X4181287Y8369300D01*
X4181287Y8343900D01*
X2606487Y7772400D02*
G01*
X2606487Y5994400D01*
X3978087Y5994400D01*
D15*
X945997Y7441387D02*
G01*
X1453997Y7441387D01*
X1453997Y5358587D01*
X945997Y5358587D01*
X945997Y7441387D01*
M02*
