M48
METRIC,LZ,000.000
;FILE_FORMAT=3:3
;TYPE=PLATED
;Layer: PTH_Through
;EasyEDA v6.5.34, 2023-10-20 22:40:53
;e57982c86cb447f5a272f3456a71b57b,57889503967a4714bf52c07adae62c9a,10
;Gerber Generator version 0.2
;Holesize 1 = 0.306 mm
T01C0.306
;Holesize 2 = 0.701 mm
T02C0.701
;Holesize 3 = 0.800 mm
T03C0.800
;Holesize 4 = 0.901 mm
T04C0.901
;Holesize 5 = 1.000 mm
T05C1.000
;Holesize 6 = 1.200 mm
T06C1.200
;Holesize 7 = 1.400 mm
T07C1.400
%
G05
G90
T01
X013584Y115058
T02
X022509Y079744
X022509Y081014
X022509Y082284
T03
X022989Y072734
X022989Y070331
X031730Y075646
X041930Y075646
X031730Y070930
X041930Y070930
X031730Y080362
X041930Y080362
X045940Y080542
X056140Y080542
X056140Y075486
X045940Y075486
X054356Y107422
X054356Y117622
T04
X047230Y093019
X047230Y090479
X047230Y087939
X047230Y085399
X054850Y093019
X054850Y090479
X054850Y087939
X054850Y085399
T05
X022987Y090424
X022987Y092964
X036830Y090424
X036830Y092964
X032480Y085128
X041180Y085128
X055040Y070680
X047040Y070680
X048198Y106617G85X048199Y106617
X025338Y106617G85X025339Y106617
X048198Y124397G85X048199Y124397
X048198Y121857G85X048199Y121857
X048198Y119317G85X048199Y119317
X048198Y116777G85X048199Y116777
X048198Y114237G85X048199Y114237
X048198Y111697G85X048199Y111697
X048198Y109157G85X048199Y109157
X025338Y124397G85X025339Y124397
X025338Y121857G85X025339Y121857
X025338Y119317G85X025339Y119317
X025338Y116777G85X025339Y116777
X025338Y114237G85X025339Y114237
X025338Y111697G85X025339Y111697
X025338Y109157G85X025339Y109157
X010795Y108458
X013335Y108458
X010795Y105918
X013335Y105918
X010795Y103378
X013335Y103378
X010795Y100838
X013335Y100838
X010795Y098298
X013335Y098298
X010795Y095758
X013335Y095758
X010795Y093218
X013335Y093218
X010795Y090678
X013335Y090678
T06
X062440Y108225
X062450Y110765
X062440Y105685
T07
X063486Y097052
X063486Y092052
X010160Y073700
X010160Y078700
X010160Y119460
X010160Y124460
X063486Y124357
X063486Y119357
X063486Y078510
X063486Y073510
M30
