G04 Layer: BottomLayer*
G04 EasyEDA v6.5.34, 2023-10-20 22:40:53*
G04 e57982c86cb447f5a272f3456a71b57b,57889503967a4714bf52c07adae62c9a,10*
G04 Gerber Generator version 0.2*
G04 Scale: 100 percent, Rotated: No, Reflected: No *
G04 Dimensions in millimeters *
G04 leading zeros omitted , absolute positions ,4 integer and 5 decimal *
%FSLAX45Y45*%
%MOMM*%

%ADD10C,0.5000*%
%ADD11C,1.0000*%
%ADD12C,1.6000*%
%ADD13C,1.8000*%
%ADD14C,1.4000*%
%ADD15O,1.5999968X0.8999982*%
%ADD16R,1.6000X0.9000*%
%ADD17C,1.4000*%
%ADD18C,1.5080*%
%ADD19C,2.2000*%
%ADD20R,1.5000X1.5000*%
%ADD21C,1.5000*%
%ADD22O,2.5999948X1.7999964*%
%ADD23R,2.6000X1.8000*%
%ADD24C,0.6100*%

%LPD*%
D10*
X1079500Y9321800D02*
G01*
X800862Y9600437D01*
X800862Y10946409D01*
X1278153Y11423700D01*
X2533853Y11423700D01*
X4819853Y11423700D02*
G01*
X4693538Y11297386D01*
X1247775Y11297386D01*
X876325Y10925937D01*
X876325Y10286974D01*
X1079500Y10083800D01*
X1079500Y10337800D02*
G01*
X948232Y10469067D01*
X948232Y10904016D01*
X1213916Y11169700D01*
X2533853Y11169700D01*
X4819853Y11931700D02*
G01*
X5266105Y11931700D01*
X5435600Y11762206D01*
X6243980Y10568457D02*
G01*
X5609336Y10568457D01*
X5435600Y10742193D01*
X3172993Y8036204D02*
G01*
X3107740Y8101456D01*
X2250897Y8101456D01*
X4193006Y7093000D02*
G01*
X3430015Y7093000D01*
X2548559Y7974456D01*
X2250897Y7974456D01*
X3172993Y7093000D02*
G01*
X2358872Y7093000D01*
X2298954Y7033082D01*
X5484977Y8793911D02*
G01*
X5230977Y9047911D01*
X4722977Y9047911D01*
X4722977Y9047911D02*
G01*
X3688511Y9047911D01*
X3683000Y9042400D01*
D11*
X6348577Y12435712D02*
G01*
X4828565Y10915700D01*
X4819853Y10915700D01*
X1016000Y7870012D02*
G01*
X1374444Y8228456D01*
X2250897Y8228456D01*
X6348577Y9705212D02*
G01*
X5281345Y9705212D01*
X4878044Y9301911D01*
X4722977Y9301911D02*
G01*
X4878044Y9301911D01*
X1333500Y9321800D02*
G01*
X2273300Y9321800D01*
X2298700Y9296400D01*
X4722977Y9301911D02*
G01*
X3688511Y9301911D01*
X3683000Y9296400D01*
X3683000Y9296400D02*
G01*
X2298700Y9296400D01*
X1016000Y7370013D02*
G01*
X2202306Y7370013D01*
X2298954Y7273366D01*
X4593970Y7831683D02*
G01*
X4593970Y8054238D01*
X6348577Y7351013D02*
G01*
X5074640Y7351013D01*
X4593970Y7831683D01*
X4593970Y7831683D02*
G01*
X3440074Y7831683D01*
X3440074Y7831683D02*
G01*
X3172993Y7564602D01*
X3440074Y7831683D02*
G01*
X3440074Y8320735D01*
X3247999Y8512810D01*
X2298700Y8890101D02*
G01*
X1013129Y8890101D01*
X686358Y9216872D01*
X686358Y11616359D01*
X1016000Y11946001D01*
X3247999Y8512810D02*
G01*
X2675991Y8512810D01*
X2298700Y8890101D01*
X2298700Y8890101D02*
G01*
X2298700Y9042400D01*
D10*
X2533853Y11677700D02*
G01*
X2361920Y11505768D01*
X1358366Y11505768D01*
D12*
G01*
X2298700Y9042400D03*
G01*
X2298700Y9296400D03*
G01*
X3683002Y9042394D03*
G01*
X3683002Y9296394D03*
D13*
G01*
X3247994Y8512820D03*
G01*
X4117995Y8512820D03*
G01*
X5503971Y7068004D03*
G01*
X4703973Y7068004D03*
D14*
G01*
X2298951Y7273363D03*
G01*
X2298951Y7033079D03*
D15*
G01*
X2250897Y7974444D03*
G01*
X2250897Y8101444D03*
D16*
G01*
X2250897Y8228444D03*
D17*
G01*
X3172995Y7564607D03*
G01*
X4193009Y7564607D03*
G01*
X3172995Y7093000D03*
G01*
X4193009Y7093000D03*
G01*
X3172995Y8036214D03*
G01*
X4193009Y8036214D03*
G01*
X4593973Y8054228D03*
G01*
X5613986Y8054228D03*
G01*
X5613986Y7548618D03*
G01*
X4593973Y7548618D03*
G01*
X5435600Y10742193D03*
G01*
X5435600Y11762206D03*
D18*
G01*
X4819850Y10661700D03*
G01*
X2533850Y10661700D03*
G01*
X4819850Y12439700D03*
G01*
X4819850Y12185700D03*
G01*
X4819850Y11931700D03*
G01*
X4819850Y11677700D03*
G01*
X4819850Y11423700D03*
G01*
X4819850Y11169700D03*
G01*
X4819850Y10915700D03*
G01*
X2533850Y12439700D03*
G01*
X2533850Y12185700D03*
G01*
X2533850Y11931700D03*
G01*
X2533850Y11677700D03*
G01*
X2533850Y11423700D03*
G01*
X2533850Y11169700D03*
G01*
X2533850Y10915700D03*
D13*
G01*
X1079500Y10845800D03*
G01*
X1333500Y10845800D03*
G01*
X1079500Y10591800D03*
G01*
X1333500Y10591800D03*
G01*
X1079500Y10337800D03*
G01*
X1333500Y10337800D03*
G01*
X1079500Y10083800D03*
G01*
X1333500Y10083800D03*
G01*
X1079500Y9829800D03*
G01*
X1333500Y9829800D03*
G01*
X1079500Y9575800D03*
G01*
X1333500Y9575800D03*
G01*
X1079500Y9321800D03*
G01*
X1333500Y9321800D03*
G01*
X1079500Y9067800D03*
G01*
X1333500Y9067800D03*
D19*
G01*
X6348577Y9705200D03*
G01*
X6348577Y9205201D03*
G01*
X1016000Y7370000D03*
G01*
X1016000Y7869999D03*
G01*
X1016000Y11946001D03*
G01*
X1016000Y12446000D03*
G01*
X6348577Y12435700D03*
G01*
X6348577Y11935701D03*
G01*
X6348577Y7851000D03*
G01*
X6348577Y7351001D03*
D20*
G01*
X4722977Y9301901D03*
D21*
G01*
X4722977Y9047901D03*
G01*
X4722977Y8793901D03*
G01*
X4722977Y8539901D03*
G01*
X5484977Y9301901D03*
G01*
X5484977Y9047901D03*
G01*
X5484977Y8793901D03*
G01*
X5484977Y8539901D03*
D22*
G01*
X6243977Y10822449D03*
G01*
X6244968Y11076475D03*
D23*
G01*
X6243977Y10568449D03*
D24*
G01*
X1358366Y11505768D03*
M02*
