G04 Layer: TopLayer*
G04 EasyEDA v6.5.23, 2023-06-23 23:10:11*
G04 1e2d741d03b145c09d046448db4ed045,57889503967a4714bf52c07adae62c9a,10*
G04 Gerber Generator version 0.2*
G04 Scale: 100 percent, Rotated: No, Reflected: No *
G04 Dimensions in millimeters *
G04 leading zeros omitted , absolute positions ,4 integer and 5 decimal *
%FSLAX45Y45*%
%MOMM*%

%ADD10C,0.2032*%
%ADD11C,0.5000*%
%ADD12C,1.0000*%
%ADD13C,1.5080*%
%ADD14C,1.4000*%
%ADD15O,1.5999968X0.8999982*%
%ADD16R,1.6000X0.9000*%
%ADD17C,1.4000*%
%ADD18C,2.2000*%
%ADD19R,1.5000X1.5000*%
%ADD20C,1.5000*%
%ADD21R,1.8000X1.8000*%
%ADD22C,1.8000*%
%ADD23C,1.6000*%
%ADD24C,0.6100*%
%ADD25C,0.0127*%

%LPD*%
D10*
X2223261Y1877364D02*
G01*
X2204720Y1895906D01*
X2177034Y1905050D01*
X2140204Y1905050D01*
X2112518Y1895906D01*
X2093975Y1877364D01*
X2093975Y1858822D01*
X2103120Y1840280D01*
X2112518Y1831136D01*
X2130806Y1821992D01*
X2186431Y1803450D01*
X2204720Y1794306D01*
X2214118Y1784908D01*
X2223261Y1766620D01*
X2223261Y1738680D01*
X2204720Y1720392D01*
X2177034Y1710994D01*
X2140204Y1710994D01*
X2112518Y1720392D01*
X2093975Y1738680D01*
X2284222Y1784908D02*
G01*
X2394965Y1784908D01*
X2394965Y1803450D01*
X2385822Y1821992D01*
X2376677Y1831136D01*
X2358136Y1840280D01*
X2330450Y1840280D01*
X2311908Y1831136D01*
X2293365Y1812594D01*
X2284222Y1784908D01*
X2284222Y1766620D01*
X2293365Y1738680D01*
X2311908Y1720392D01*
X2330450Y1710994D01*
X2358136Y1710994D01*
X2376677Y1720392D01*
X2394965Y1738680D01*
X2455925Y1840280D02*
G01*
X2455925Y1710994D01*
X2455925Y1803450D02*
G01*
X2483611Y1831136D01*
X2502154Y1840280D01*
X2529840Y1840280D01*
X2548381Y1831136D01*
X2557525Y1803450D01*
X2557525Y1710994D01*
X2557525Y1803450D02*
G01*
X2585211Y1831136D01*
X2603754Y1840280D01*
X2631440Y1840280D01*
X2649981Y1831136D01*
X2659125Y1803450D01*
X2659125Y1710994D01*
X2831084Y1840280D02*
G01*
X2831084Y1710994D01*
X2831084Y1812594D02*
G01*
X2812541Y1831136D01*
X2794000Y1840280D01*
X2766313Y1840280D01*
X2747772Y1831136D01*
X2729484Y1812594D01*
X2720086Y1784908D01*
X2720086Y1766620D01*
X2729484Y1738680D01*
X2747772Y1720392D01*
X2766313Y1710994D01*
X2794000Y1710994D01*
X2812541Y1720392D01*
X2831084Y1738680D01*
X2965958Y1905050D02*
G01*
X2947415Y1905050D01*
X2928874Y1895906D01*
X2919729Y1868220D01*
X2919729Y1710994D01*
X2892043Y1840280D02*
G01*
X2956559Y1840280D01*
X3072891Y1840280D02*
G01*
X3054604Y1831136D01*
X3036061Y1812594D01*
X3026918Y1784908D01*
X3026918Y1766620D01*
X3036061Y1738680D01*
X3054604Y1720392D01*
X3072891Y1710994D01*
X3100831Y1710994D01*
X3119120Y1720392D01*
X3137661Y1738680D01*
X3146806Y1766620D01*
X3146806Y1784908D01*
X3137661Y1812594D01*
X3119120Y1831136D01*
X3100831Y1840280D01*
X3072891Y1840280D01*
X3207765Y1840280D02*
G01*
X3207765Y1710994D01*
X3207765Y1784908D02*
G01*
X3217163Y1812594D01*
X3235452Y1831136D01*
X3253993Y1840280D01*
X3281679Y1840280D01*
X3342640Y1905050D02*
G01*
X3342640Y1710994D01*
X3435095Y1840280D02*
G01*
X3342640Y1748078D01*
X3379724Y1784908D02*
G01*
X3444240Y1710994D01*
X3514597Y1840280D02*
G01*
X3569970Y1710994D01*
X3625341Y1840280D02*
G01*
X3569970Y1710994D01*
X3551427Y1674164D01*
X3532886Y1655622D01*
X3514597Y1646478D01*
X3505200Y1646478D01*
X3686302Y1905050D02*
G01*
X3686302Y1710994D01*
X3686302Y1905050D02*
G01*
X3815588Y1710994D01*
X3815588Y1905050D02*
G01*
X3815588Y1710994D01*
X4015231Y1858822D02*
G01*
X4005834Y1877364D01*
X3987291Y1895906D01*
X3969004Y1905050D01*
X3931920Y1905050D01*
X3913631Y1895906D01*
X3895090Y1877364D01*
X3885691Y1858822D01*
X3876547Y1831136D01*
X3876547Y1784908D01*
X3885691Y1757222D01*
X3895090Y1738680D01*
X3913631Y1720392D01*
X3931920Y1710994D01*
X3969004Y1710994D01*
X3987291Y1720392D01*
X4005834Y1738680D01*
X4015231Y1757222D01*
X4015231Y1784908D01*
X3969004Y1784908D02*
G01*
X4015231Y1784908D01*
X4218431Y1840280D02*
G01*
X4273804Y1710994D01*
X4329175Y1840280D02*
G01*
X4273804Y1710994D01*
X4399279Y1858822D02*
G01*
X4399279Y1868220D01*
X4408677Y1886508D01*
X4417822Y1895906D01*
X4436363Y1905050D01*
X4473193Y1905050D01*
X4491736Y1895906D01*
X4500879Y1886508D01*
X4510277Y1868220D01*
X4510277Y1849678D01*
X4500879Y1831136D01*
X4482591Y1803450D01*
X4390136Y1710994D01*
X4519422Y1710994D01*
X4589525Y1757222D02*
G01*
X4580381Y1748078D01*
X4589525Y1738680D01*
X4598924Y1748078D01*
X4589525Y1757222D01*
X4715256Y1905050D02*
G01*
X4687570Y1895906D01*
X4669027Y1868220D01*
X4659884Y1821992D01*
X4659884Y1794306D01*
X4669027Y1748078D01*
X4687570Y1720392D01*
X4715256Y1710994D01*
X4733797Y1710994D01*
X4761484Y1720392D01*
X4779772Y1748078D01*
X4789170Y1794306D01*
X4789170Y1821992D01*
X4779772Y1868220D01*
X4761484Y1895906D01*
X4733797Y1905050D01*
X4715256Y1905050D01*
X5882995Y4077385D02*
G01*
X5882995Y3911015D01*
X5799937Y3994327D02*
G01*
X5966307Y3994327D01*
X5799937Y4394098D02*
G01*
X5966307Y4394098D01*
X883005Y4177385D02*
G01*
X883005Y4011015D01*
X799947Y4094327D02*
G01*
X966317Y4094327D01*
X799947Y4394098D02*
G01*
X966317Y4394098D01*
D11*
X3779979Y3499993D02*
G01*
X3779979Y5046979D01*
X4536899Y5803900D01*
X1326898Y5765037D02*
G01*
X1983920Y6422059D01*
X1983920Y6806920D01*
X2250899Y7073900D01*
X2250899Y6819900D02*
G01*
X2135101Y6704101D01*
X2135101Y6042050D01*
X1424637Y5331587D01*
X1424637Y4459376D01*
X1261976Y4296714D01*
X1139675Y4296714D01*
X1049606Y4386783D01*
X1049606Y5253507D01*
X933046Y5370068D01*
X933046Y5625185D01*
X1072898Y5765037D01*
X4018993Y3772992D02*
G01*
X4139465Y3652520D01*
X4139465Y3329457D01*
X3910002Y3099993D01*
X1072898Y7035037D02*
G01*
X933630Y7174306D01*
X933630Y7340625D01*
X1367792Y7774787D01*
X5434865Y7774787D01*
X5866792Y7342860D01*
X5866792Y6921144D01*
X5726940Y6781292D01*
D12*
X1326898Y5511037D02*
G01*
X1326898Y4576902D01*
X1200000Y4450003D01*
X2204112Y4326991D02*
G01*
X2354125Y4176979D01*
X2354125Y2926029D01*
X2255090Y2826994D01*
X2099998Y2826994D02*
G01*
X2255090Y2826994D01*
X1200000Y3950004D02*
G01*
X1200000Y3220135D01*
X4780993Y4280992D02*
G01*
X4544976Y4044975D01*
X4544976Y3122803D01*
X4589985Y3077794D01*
D11*
X3910002Y2299995D02*
G01*
X3910002Y2699994D01*
X5399991Y2299995D02*
G01*
X5609998Y2510002D01*
X5609998Y2677795D01*
X5609998Y2677795D02*
G01*
X5609998Y3077794D01*
X4599993Y2299995D02*
G01*
X4589985Y2310003D01*
X4589985Y2677795D01*
X4780993Y3772992D02*
G01*
X4655771Y3647770D01*
X4655771Y3363696D01*
X4702787Y3316681D01*
X4702787Y2790596D01*
X4589985Y2677795D01*
X5472940Y6781292D02*
G01*
X5375734Y6878497D01*
X5726940Y7289292D02*
G01*
X5590872Y7425359D01*
X5317441Y7425359D01*
X4850183Y6958101D01*
X4459632Y6958101D01*
X4385109Y6883577D01*
X4182137Y5770295D02*
G01*
X4182137Y5871794D01*
X4495243Y6184900D01*
X4573983Y6184900D01*
X5337482Y6948398D01*
X5337482Y7153833D01*
X5472940Y7289292D01*
X1072898Y6781037D02*
G01*
X863450Y6571589D01*
X863450Y5114696D01*
X2250899Y6057900D02*
G01*
X1734568Y5541568D01*
X1734568Y5198770D01*
X1906221Y6610832D02*
G01*
X1906221Y6916038D01*
X1399694Y7422565D01*
X1206426Y7422565D01*
X1072898Y7289037D01*
X2073379Y7621904D02*
G01*
X2156945Y7705470D01*
X2303960Y7705470D01*
X2408989Y7600442D01*
X2408989Y7073900D01*
D13*
G01*
X4536897Y5803900D03*
G01*
X2250897Y5803900D03*
G01*
X4536897Y7581900D03*
G01*
X4536897Y7327900D03*
G01*
X4536897Y7073900D03*
G01*
X4536897Y6819900D03*
G01*
X4536897Y6565900D03*
G01*
X4536897Y6311900D03*
G01*
X4536897Y6057900D03*
G01*
X2250897Y7581900D03*
G01*
X2250897Y7327900D03*
G01*
X2250897Y7073900D03*
G01*
X2250897Y6819900D03*
G01*
X2250897Y6565900D03*
G01*
X2250897Y6311900D03*
G01*
X2250897Y6057900D03*
D14*
G01*
X1199997Y3220135D03*
G01*
X1199997Y2979851D03*
D15*
G01*
X2099995Y2572994D03*
G01*
X2099995Y2699994D03*
D16*
G01*
X2099995Y2826994D03*
D17*
G01*
X2889986Y2699994D03*
G01*
X3909999Y2699994D03*
G01*
X2889986Y2299995D03*
G01*
X3909999Y2299995D03*
G01*
X2889986Y3099993D03*
G01*
X3909999Y3099993D03*
G01*
X4589983Y3077794D03*
G01*
X5609996Y3077794D03*
G01*
X5609996Y2677795D03*
G01*
X4589983Y2677795D03*
D18*
G01*
X5604093Y4449991D03*
G01*
X5604093Y3949992D03*
G01*
X1199997Y3949992D03*
G01*
X1199997Y4449991D03*
D19*
G01*
X4018991Y4280992D03*
D20*
G01*
X4018991Y4026992D03*
G01*
X4018991Y3772992D03*
G01*
X4018991Y3518992D03*
G01*
X4780991Y4280992D03*
G01*
X4780991Y4026992D03*
G01*
X4780991Y3772992D03*
G01*
X4780991Y3518992D03*
D21*
G01*
X5472938Y7289292D03*
D22*
G01*
X5726938Y7289292D03*
G01*
X5472938Y7035292D03*
G01*
X5726938Y7035292D03*
G01*
X5472938Y6781292D03*
G01*
X5726938Y6781292D03*
G01*
X5472938Y6527292D03*
G01*
X5726938Y6527292D03*
G01*
X5472938Y6273292D03*
G01*
X5726938Y6273292D03*
G01*
X5472938Y6019292D03*
G01*
X5726938Y6019292D03*
G01*
X5472938Y5765292D03*
G01*
X5726938Y5765292D03*
G01*
X5472938Y5511292D03*
G01*
X5726938Y5511292D03*
G01*
X1326895Y5511037D03*
G01*
X1072895Y5511037D03*
G01*
X1326895Y5765037D03*
G01*
X1072895Y5765037D03*
G01*
X1326895Y6019037D03*
G01*
X1072895Y6019037D03*
G01*
X1326895Y6273037D03*
G01*
X1072895Y6273037D03*
G01*
X1326895Y6527037D03*
G01*
X1072895Y6527037D03*
G01*
X1326895Y6781037D03*
G01*
X1072895Y6781037D03*
G01*
X1326895Y7035037D03*
G01*
X1072895Y7035037D03*
G01*
X1326895Y7289037D03*
G01*
X1072895Y7289037D03*
D23*
G01*
X2204100Y4072991D03*
G01*
X2204100Y4326991D03*
G01*
X3404097Y4072991D03*
G01*
X3404097Y4326991D03*
D22*
G01*
X5399989Y2299995D03*
G01*
X4599990Y2299995D03*
G01*
X2909976Y3499993D03*
G01*
X3779977Y3499993D03*
D24*
G01*
X2408989Y7073900D03*
G01*
X2073379Y7621904D03*
G01*
X1906221Y6610832D03*
G01*
X1734568Y5198770D03*
G01*
X4182137Y5770295D03*
G01*
X863450Y5114696D03*
G01*
X4385109Y6883577D03*
G01*
X5375734Y6878497D03*
M02*
