G04 Layer: BottomLayer*
G04 EasyEDA v6.5.23, 2023-06-23 23:10:11*
G04 1e2d741d03b145c09d046448db4ed045,57889503967a4714bf52c07adae62c9a,10*
G04 Gerber Generator version 0.2*
G04 Scale: 100 percent, Rotated: No, Reflected: No *
G04 Dimensions in millimeters *
G04 leading zeros omitted , absolute positions ,4 integer and 5 decimal *
%FSLAX45Y45*%
%MOMM*%

%ADD10C,1.0000*%
%ADD11C,0.5000*%
%ADD12C,1.5080*%
%ADD13C,1.4000*%
%ADD14O,1.5999968X0.8999982*%
%ADD15R,1.6000X0.9000*%
%ADD16C,1.4000*%
%ADD17C,2.2000*%
%ADD18R,1.5000X1.5000*%
%ADD19C,1.5000*%
%ADD20R,1.8000X1.8000*%
%ADD21C,1.8000*%
%ADD22C,1.6000*%
%ADD23C,0.6100*%

%LPD*%
D10*
X4780993Y4280992D02*
G01*
X5273118Y4280992D01*
X5604106Y3950004D01*
D11*
X1326898Y6273037D02*
G01*
X1415138Y6184798D01*
X3901798Y6184798D01*
X4536899Y6819900D01*
X1072898Y5511037D02*
G01*
X1211607Y5372328D01*
X3597328Y5372328D01*
X4536899Y6311900D01*
D10*
X4018993Y4280992D02*
G01*
X3868905Y4280992D01*
X2204112Y4326991D02*
G01*
X1323012Y4326991D01*
X1200000Y4450003D01*
X3868905Y4280992D02*
G01*
X3822905Y4326991D01*
X3404110Y4326991D01*
X3404110Y4326991D02*
G01*
X2204112Y4326991D01*
X4018993Y4280992D02*
G01*
X4169082Y4280992D01*
X4377057Y4450003D02*
G01*
X4377057Y5898057D01*
X4536899Y6057900D01*
X5604106Y4450003D02*
G01*
X4377057Y4450003D01*
X4377057Y4450003D02*
G01*
X4338093Y4450003D01*
X4169082Y4280992D01*
X2204112Y3950004D02*
G01*
X1200000Y3950004D01*
X2909978Y3499993D02*
G01*
X2654124Y3499993D01*
X2204112Y3950004D01*
X2204112Y3950004D02*
G01*
X2204112Y4072991D01*
X4018993Y3518992D02*
G01*
X4460191Y3077794D01*
X4589985Y3077794D01*
X2889989Y2699994D02*
G01*
X3081886Y2891891D01*
X3081886Y3328085D01*
X4018993Y3518992D02*
G01*
X3828087Y3328085D01*
X3081886Y3328085D01*
X3081886Y3328085D02*
G01*
X2909978Y3499993D01*
D11*
X2889989Y2299995D02*
G01*
X1879856Y2299995D01*
X1200000Y2979851D01*
X3910002Y2299995D02*
G01*
X3637003Y2572994D01*
X2099998Y2572994D01*
X2889989Y3099993D02*
G01*
X2489989Y2699994D01*
X2099998Y2699994D01*
X4780993Y4026992D02*
G01*
X5609998Y3197987D01*
X5609998Y3077794D01*
X3404110Y4072991D02*
G01*
X3972994Y4072991D01*
X4018993Y4026992D01*
X4780993Y3772992D02*
G01*
X4526993Y4026992D01*
X4018993Y4026992D01*
X1072898Y6527037D02*
G01*
X933427Y6666509D01*
X933427Y7345121D01*
X1042824Y7454519D01*
X5053713Y7454519D01*
X5472940Y7035292D01*
X5375734Y6878497D02*
G01*
X5299788Y6954443D01*
X1661492Y6954443D01*
X1326898Y7289037D01*
X4385109Y6883577D02*
G01*
X4194431Y6692900D01*
X1415036Y6692900D01*
X1326898Y6781037D01*
X4182137Y5770295D02*
G01*
X3526538Y5114696D01*
X863450Y5114696D01*
X1734568Y5198770D02*
G01*
X1194666Y5198770D01*
X933046Y5460390D01*
X933046Y5879185D01*
X1072898Y6019037D01*
X2250899Y6311900D02*
G01*
X2205154Y6311900D01*
X1906221Y6610832D01*
X4536899Y7073900D02*
G01*
X2408989Y7073900D01*
X1072898Y6273037D02*
G01*
X860859Y6485077D01*
X860859Y7389139D01*
X1093624Y7621904D01*
X2073379Y7621904D01*
D12*
G01*
X4536897Y5803900D03*
G01*
X2250897Y5803900D03*
G01*
X4536897Y7581900D03*
G01*
X4536897Y7327900D03*
G01*
X4536897Y7073900D03*
G01*
X4536897Y6819900D03*
G01*
X4536897Y6565900D03*
G01*
X4536897Y6311900D03*
G01*
X4536897Y6057900D03*
G01*
X2250897Y7581900D03*
G01*
X2250897Y7327900D03*
G01*
X2250897Y7073900D03*
G01*
X2250897Y6819900D03*
G01*
X2250897Y6565900D03*
G01*
X2250897Y6311900D03*
G01*
X2250897Y6057900D03*
D13*
G01*
X1199997Y3220135D03*
G01*
X1199997Y2979851D03*
D14*
G01*
X2099995Y2572994D03*
G01*
X2099995Y2699994D03*
D15*
G01*
X2099995Y2826994D03*
D16*
G01*
X2889986Y2699994D03*
G01*
X3909999Y2699994D03*
G01*
X2889986Y2299995D03*
G01*
X3909999Y2299995D03*
G01*
X2889986Y3099993D03*
G01*
X3909999Y3099993D03*
G01*
X4589983Y3077794D03*
G01*
X5609996Y3077794D03*
G01*
X5609996Y2677795D03*
G01*
X4589983Y2677795D03*
D17*
G01*
X5604093Y4449991D03*
G01*
X5604093Y3949992D03*
G01*
X1199997Y3949992D03*
G01*
X1199997Y4449991D03*
D18*
G01*
X4018991Y4280992D03*
D19*
G01*
X4018991Y4026992D03*
G01*
X4018991Y3772992D03*
G01*
X4018991Y3518992D03*
G01*
X4780991Y4280992D03*
G01*
X4780991Y4026992D03*
G01*
X4780991Y3772992D03*
G01*
X4780991Y3518992D03*
D20*
G01*
X5472938Y7289292D03*
D21*
G01*
X5726938Y7289292D03*
G01*
X5472938Y7035292D03*
G01*
X5726938Y7035292D03*
G01*
X5472938Y6781292D03*
G01*
X5726938Y6781292D03*
G01*
X5472938Y6527292D03*
G01*
X5726938Y6527292D03*
G01*
X5472938Y6273292D03*
G01*
X5726938Y6273292D03*
G01*
X5472938Y6019292D03*
G01*
X5726938Y6019292D03*
G01*
X5472938Y5765292D03*
G01*
X5726938Y5765292D03*
G01*
X5472938Y5511292D03*
G01*
X5726938Y5511292D03*
G01*
X1326895Y5511037D03*
G01*
X1072895Y5511037D03*
G01*
X1326895Y5765037D03*
G01*
X1072895Y5765037D03*
G01*
X1326895Y6019037D03*
G01*
X1072895Y6019037D03*
G01*
X1326895Y6273037D03*
G01*
X1072895Y6273037D03*
G01*
X1326895Y6527037D03*
G01*
X1072895Y6527037D03*
G01*
X1326895Y6781037D03*
G01*
X1072895Y6781037D03*
G01*
X1326895Y7035037D03*
G01*
X1072895Y7035037D03*
G01*
X1326895Y7289037D03*
G01*
X1072895Y7289037D03*
D22*
G01*
X2204100Y4072991D03*
G01*
X2204100Y4326991D03*
G01*
X3404097Y4072991D03*
G01*
X3404097Y4326991D03*
D21*
G01*
X5399989Y2299995D03*
G01*
X4599990Y2299995D03*
G01*
X2909976Y3499993D03*
G01*
X3779977Y3499993D03*
D23*
G01*
X2408989Y7073900D03*
G01*
X2073379Y7621904D03*
G01*
X1906221Y6610832D03*
G01*
X1734568Y5198770D03*
G01*
X4182137Y5770295D03*
G01*
X863450Y5114696D03*
G01*
X4385109Y6883577D03*
G01*
X5375734Y6878497D03*
M02*
