G04 Layer: TopLayer*
G04 EasyEDA v6.5.34, 2023-10-20 22:40:53*
G04 e57982c86cb447f5a272f3456a71b57b,57889503967a4714bf52c07adae62c9a,10*
G04 Gerber Generator version 0.2*
G04 Scale: 100 percent, Rotated: No, Reflected: No *
G04 Dimensions in millimeters *
G04 leading zeros omitted , absolute positions ,4 integer and 5 decimal *
%FSLAX45Y45*%
%MOMM*%

%ADD10C,0.2032*%
%ADD11C,0.5000*%
%ADD12C,1.0000*%
%ADD13C,1.6000*%
%ADD14C,1.8000*%
%ADD15C,1.4000*%
%ADD16O,1.5999968X0.8999982*%
%ADD17R,1.6000X0.9000*%
%ADD18C,1.4000*%
%ADD19C,1.5080*%
%ADD20C,2.2000*%
%ADD21R,1.5000X1.5000*%
%ADD22C,1.5000*%
%ADD23O,2.5999948X1.7999964*%
%ADD24R,2.6000X1.8000*%
%ADD25C,0.6100*%
%ADD26C,0.0198*%

%LPD*%
D10*
X2520066Y6686092D02*
G01*
X2501524Y6704634D01*
X2473838Y6713778D01*
X2437008Y6713778D01*
X2409322Y6704634D01*
X2390780Y6686092D01*
X2390780Y6667550D01*
X2399924Y6649262D01*
X2409322Y6639864D01*
X2427610Y6630720D01*
X2483236Y6612178D01*
X2501524Y6603034D01*
X2510922Y6593890D01*
X2520066Y6575348D01*
X2520066Y6547662D01*
X2501524Y6529120D01*
X2473838Y6519976D01*
X2437008Y6519976D01*
X2409322Y6529120D01*
X2390780Y6547662D01*
X2581026Y6593890D02*
G01*
X2691770Y6593890D01*
X2691770Y6612178D01*
X2682626Y6630720D01*
X2673482Y6639864D01*
X2654940Y6649262D01*
X2627254Y6649262D01*
X2608712Y6639864D01*
X2590170Y6621576D01*
X2581026Y6593890D01*
X2581026Y6575348D01*
X2590170Y6547662D01*
X2608712Y6529120D01*
X2627254Y6519976D01*
X2654940Y6519976D01*
X2673482Y6529120D01*
X2691770Y6547662D01*
X2752730Y6649262D02*
G01*
X2752730Y6519976D01*
X2752730Y6612178D02*
G01*
X2780670Y6639864D01*
X2798958Y6649262D01*
X2826644Y6649262D01*
X2845186Y6639864D01*
X2854330Y6612178D01*
X2854330Y6519976D01*
X2854330Y6612178D02*
G01*
X2882270Y6639864D01*
X2900558Y6649262D01*
X2928244Y6649262D01*
X2946786Y6639864D01*
X2955930Y6612178D01*
X2955930Y6519976D01*
X3127888Y6649262D02*
G01*
X3127888Y6519976D01*
X3127888Y6621576D02*
G01*
X3109346Y6639864D01*
X3090804Y6649262D01*
X3063118Y6649262D01*
X3044830Y6639864D01*
X3026288Y6621576D01*
X3016890Y6593890D01*
X3016890Y6575348D01*
X3026288Y6547662D01*
X3044830Y6529120D01*
X3063118Y6519976D01*
X3090804Y6519976D01*
X3109346Y6529120D01*
X3127888Y6547662D01*
X3262762Y6713778D02*
G01*
X3244220Y6713778D01*
X3225678Y6704634D01*
X3216534Y6676948D01*
X3216534Y6519976D01*
X3188848Y6649262D02*
G01*
X3253364Y6649262D01*
X3369950Y6649262D02*
G01*
X3351408Y6639864D01*
X3332866Y6621576D01*
X3323722Y6593890D01*
X3323722Y6575348D01*
X3332866Y6547662D01*
X3351408Y6529120D01*
X3369950Y6519976D01*
X3397636Y6519976D01*
X3415924Y6529120D01*
X3434466Y6547662D01*
X3443610Y6575348D01*
X3443610Y6593890D01*
X3434466Y6621576D01*
X3415924Y6639864D01*
X3397636Y6649262D01*
X3369950Y6649262D01*
X3504570Y6649262D02*
G01*
X3504570Y6519976D01*
X3504570Y6593890D02*
G01*
X3513968Y6621576D01*
X3532510Y6639864D01*
X3550798Y6649262D01*
X3578484Y6649262D01*
X3639444Y6713778D02*
G01*
X3639444Y6519976D01*
X3731900Y6649262D02*
G01*
X3639444Y6556806D01*
X3676528Y6593890D02*
G01*
X3741044Y6519976D01*
X3811402Y6649262D02*
G01*
X3866774Y6519976D01*
X3922146Y6649262D02*
G01*
X3866774Y6519976D01*
X3848232Y6482892D01*
X3829690Y6464350D01*
X3811402Y6455206D01*
X3802004Y6455206D01*
X3983106Y6713778D02*
G01*
X4112392Y6519976D01*
X4112392Y6713778D02*
G01*
X3983106Y6519976D01*
X4173352Y6713778D02*
G01*
X4173352Y6519976D01*
X4173352Y6519976D02*
G01*
X4284350Y6519976D01*
X4487550Y6649262D02*
G01*
X4542922Y6519976D01*
X4598294Y6649262D02*
G01*
X4542922Y6519976D01*
X4659254Y6676948D02*
G01*
X4677796Y6686092D01*
X4705482Y6713778D01*
X4705482Y6519976D01*
X4775586Y6565950D02*
G01*
X4766442Y6556806D01*
X4775586Y6547662D01*
X4784730Y6556806D01*
X4775586Y6565950D01*
X4901316Y6713778D02*
G01*
X4873630Y6704634D01*
X4855088Y6676948D01*
X4845690Y6630720D01*
X4845690Y6603034D01*
X4855088Y6556806D01*
X4873630Y6529120D01*
X4901316Y6519976D01*
X4919604Y6519976D01*
X4947290Y6529120D01*
X4965832Y6556806D01*
X4975230Y6603034D01*
X4975230Y6630720D01*
X4965832Y6676948D01*
X4947290Y6704634D01*
X4919604Y6713778D01*
X4901316Y6713778D01*
X806907Y7556093D02*
G01*
X806907Y7389723D01*
X723849Y7473035D02*
G01*
X890219Y7473035D01*
X723849Y7772806D02*
G01*
X890219Y7772806D01*
X819607Y12132894D02*
G01*
X819607Y11966524D01*
X736549Y12049836D02*
G01*
X902919Y12049836D01*
X736549Y12349606D02*
G01*
X902919Y12349606D01*
X6547307Y12107494D02*
G01*
X6547307Y11941124D01*
X6464249Y12024436D02*
G01*
X6630619Y12024436D01*
X6464249Y12324206D02*
G01*
X6630619Y12324206D01*
X6128207Y9376994D02*
G01*
X6128207Y9210624D01*
X6045149Y9293936D02*
G01*
X6211519Y9293936D01*
X6045149Y9593706D02*
G01*
X6211519Y9593706D01*
X6464249Y7747406D02*
G01*
X6630619Y7747406D01*
X6547307Y7530693D02*
G01*
X6547307Y7364323D01*
X6464249Y7447635D02*
G01*
X6630619Y7447635D01*
D11*
X1079500Y9067800D02*
G01*
X1221689Y8925610D01*
X1390294Y8925610D01*
X2654782Y10190099D01*
X2654782Y11810771D01*
X2533853Y11931700D01*
X1333500Y9067800D02*
G01*
X2395651Y10129951D01*
X2395651Y10777499D01*
X2533853Y10915700D01*
X4722977Y8793911D02*
G01*
X4193006Y8263940D01*
X4193006Y8036204D01*
D12*
X4819853Y10661700D02*
G01*
X4118000Y9959847D01*
X4118000Y8512810D01*
X6244970Y11076482D02*
G01*
X6348577Y11180089D01*
X6348577Y11935713D01*
X6243980Y10822457D02*
G01*
X6331610Y10822457D01*
X6540576Y10613491D01*
X6540576Y9397212D01*
X6348577Y9205213D01*
D11*
X5484977Y9047911D02*
G01*
X5613984Y8918905D01*
X5613984Y8054238D01*
X5613984Y7548626D02*
G01*
X5613984Y8054238D01*
X5613984Y7548626D02*
G01*
X5503976Y7438618D01*
X5503976Y7068007D01*
X4193006Y7093000D02*
G01*
X4193006Y7564602D01*
X4593970Y7548626D02*
G01*
X4703978Y7438618D01*
X4703978Y7068007D01*
X4593970Y7548626D02*
G01*
X4889271Y7843926D01*
X4889271Y8198205D01*
X5484977Y8793911D01*
D12*
X6348577Y7851012D02*
G01*
X5949340Y8250250D01*
X5949340Y9421342D01*
X5995238Y9467240D01*
X6230086Y9467240D01*
X6348577Y9585731D01*
X6348577Y9705212D01*
X4819853Y10915700D02*
G01*
X4987594Y10747959D01*
X4987594Y9721595D01*
X4722977Y9456978D01*
X4722977Y9301911D02*
G01*
X4722977Y9456978D01*
X2410968Y8228456D02*
G01*
X2466720Y8284210D01*
X2466720Y9128379D01*
X2298700Y9296400D01*
X2250897Y8228456D02*
G01*
X2410968Y8228456D01*
X1333500Y9321800D02*
G01*
X1510563Y9498863D01*
X1510563Y11951436D01*
X1016000Y12446000D01*
X5484977Y9301911D02*
G01*
X4722977Y8539911D01*
X4722977Y8539911D02*
G01*
X4593970Y8410905D01*
X4593970Y8054238D01*
X2298954Y7273366D02*
G01*
X2881756Y7273366D01*
X3172993Y7564602D01*
D11*
X1079500Y9829800D02*
G01*
X937056Y9972243D01*
X937056Y11084458D01*
X1358366Y11505768D01*
D13*
G01*
X2298700Y9042400D03*
G01*
X2298700Y9296400D03*
G01*
X3683002Y9042394D03*
G01*
X3683002Y9296394D03*
D14*
G01*
X3247994Y8512820D03*
G01*
X4117995Y8512820D03*
G01*
X5503971Y7068004D03*
G01*
X4703973Y7068004D03*
D15*
G01*
X2298951Y7273363D03*
G01*
X2298951Y7033079D03*
D16*
G01*
X2250897Y7974444D03*
G01*
X2250897Y8101444D03*
D17*
G01*
X2250897Y8228444D03*
D18*
G01*
X3172995Y7564607D03*
G01*
X4193009Y7564607D03*
G01*
X3172995Y7093000D03*
G01*
X4193009Y7093000D03*
G01*
X3172995Y8036214D03*
G01*
X4193009Y8036214D03*
G01*
X4593973Y8054228D03*
G01*
X5613986Y8054228D03*
G01*
X5613986Y7548618D03*
G01*
X4593973Y7548618D03*
G01*
X5435600Y10742193D03*
G01*
X5435600Y11762206D03*
D19*
G01*
X4819850Y10661700D03*
G01*
X2533850Y10661700D03*
G01*
X4819850Y12439700D03*
G01*
X4819850Y12185700D03*
G01*
X4819850Y11931700D03*
G01*
X4819850Y11677700D03*
G01*
X4819850Y11423700D03*
G01*
X4819850Y11169700D03*
G01*
X4819850Y10915700D03*
G01*
X2533850Y12439700D03*
G01*
X2533850Y12185700D03*
G01*
X2533850Y11931700D03*
G01*
X2533850Y11677700D03*
G01*
X2533850Y11423700D03*
G01*
X2533850Y11169700D03*
G01*
X2533850Y10915700D03*
D14*
G01*
X1079500Y10845800D03*
G01*
X1333500Y10845800D03*
G01*
X1079500Y10591800D03*
G01*
X1333500Y10591800D03*
G01*
X1079500Y10337800D03*
G01*
X1333500Y10337800D03*
G01*
X1079500Y10083800D03*
G01*
X1333500Y10083800D03*
G01*
X1079500Y9829800D03*
G01*
X1333500Y9829800D03*
G01*
X1079500Y9575800D03*
G01*
X1333500Y9575800D03*
G01*
X1079500Y9321800D03*
G01*
X1333500Y9321800D03*
G01*
X1079500Y9067800D03*
G01*
X1333500Y9067800D03*
D20*
G01*
X6348577Y9705200D03*
G01*
X6348577Y9205201D03*
G01*
X1016000Y7370000D03*
G01*
X1016000Y7869999D03*
G01*
X1016000Y11946001D03*
G01*
X1016000Y12446000D03*
G01*
X6348577Y12435700D03*
G01*
X6348577Y11935701D03*
G01*
X6348577Y7851000D03*
G01*
X6348577Y7351001D03*
D21*
G01*
X4722977Y9301901D03*
D22*
G01*
X4722977Y9047901D03*
G01*
X4722977Y8793901D03*
G01*
X4722977Y8539901D03*
G01*
X5484977Y9301901D03*
G01*
X5484977Y9047901D03*
G01*
X5484977Y8793901D03*
G01*
X5484977Y8539901D03*
D23*
G01*
X6243977Y10822449D03*
G01*
X6244968Y11076475D03*
D24*
G01*
X6243977Y10568449D03*
D25*
G01*
X1358366Y11505768D03*
M02*
