M48
METRIC,LZ,000.000
;FILE_FORMAT=3:3
;TYPE=PLATED
;Layer: PTH_Through
;EasyEDA v6.5.23, 2023-06-23 23:10:11
;1e2d741d03b145c09d046448db4ed045,57889503967a4714bf52c07adae62c9a,10
;Gerber Generator version 0.2
;Holesize 1 = 0.701 mm
T01C0.701
;Holesize 2 = 0.800 mm
T02C0.800
;Holesize 3 = 0.901 mm
T03C0.901
;Holesize 4 = 1.000 mm
T04C1.000
;Holesize 5 = 1.200 mm
T05C1.200
;Holesize 6 = 1.400 mm
T06C1.400
%
G05
G90
T01
X021000Y025730
X021000Y027000
X021000Y028270
T02
X012000Y032201
X012000Y029799
X028900Y027000
X039100Y027000
X028900Y023000
X039100Y023000
X028900Y031000
X039100Y031000
X045900Y030778
X056100Y030778
X056100Y026778
X045900Y026778
T03
X040190Y042810
X040190Y040270
X040190Y037730
X040190Y035190
X047810Y042810
X047810Y040270
X047810Y037730
X047810Y035190
T04
X045369Y058039G85X045369Y058039
X022509Y058039G85X022509Y058039
X045369Y075819G85X045369Y075819
X045369Y073279G85X045369Y073279
X045369Y070739G85X045369Y070739
X045369Y068199G85X045369Y068199
X045369Y065659G85X045369Y065659
X045369Y063119G85X045369Y063119
X045369Y060579G85X045369Y060579
X022509Y075819G85X022509Y075819
X022509Y073279G85X022509Y073279
X022509Y070739G85X022509Y070739
X022509Y068199G85X022509Y068199
X022509Y065659G85X022509Y065659
X022509Y063119G85X022509Y063119
X022509Y060579G85X022509Y060579
X013269Y055110
X010729Y055110
X013269Y057650
X010729Y057650
X013269Y060190
X010729Y060190
X013269Y062730
X010729Y062730
X013269Y065270
X010729Y065270
X013269Y067810
X010729Y067810
X013269Y070350
X010729Y070350
X013269Y072890
X010729Y072890
X022041Y040730
X022041Y043270
X034041Y040730
X034041Y043270
X054000Y023000
X046000Y023000
X029100Y035000
X037800Y035000
T05
X054729Y072893
X057269Y072893
X054729Y070353
X057269Y070353
X054729Y067813
X057269Y067813
X054729Y065273
X057269Y065273
X054729Y062733
X057269Y062733
X054729Y060193
X057269Y060193
X054729Y057653
X057269Y057653
X054729Y055113
X057269Y055113
T06
X056041Y044500
X056041Y039500
X012000Y039500
X012000Y044500
M30
