G04 Layer: BottomSolderMaskLayer*
G04 EasyEDA v6.5.34, 2023-10-20 22:40:53*
G04 e57982c86cb447f5a272f3456a71b57b,57889503967a4714bf52c07adae62c9a,10*
G04 Gerber Generator version 0.2*
G04 Scale: 100 percent, Rotated: No, Reflected: No *
G04 Dimensions in millimeters *
G04 leading zeros omitted , absolute positions ,4 integer and 5 decimal *
%FSLAX45Y45*%
%MOMM*%

%AMMACRO1*1,1,$1,$2,$3*1,1,$1,$4,$5*1,1,$1,0-$2,0-$3*1,1,$1,0-$4,0-$5*20,1,$1,$2,$3,$4,$5,0*20,1,$1,$4,$5,0-$2,0-$3,0*20,1,$1,0-$2,0-$3,0-$4,0-$5,0*20,1,$1,0-$4,0-$5,$2,$3,0*4,1,4,$2,$3,$4,$5,0-$2,0-$3,0-$4,0-$5,$2,$3,0*%
%ADD10C,1.7016*%
%ADD11C,1.9016*%
%ADD12C,1.5016*%
%ADD13O,1.7015968X1.0015981999999999*%
%ADD14MACRO1,0.1016X0.8X0.45X0.8X-0.45*%
%ADD15C,1.5016*%
%ADD16C,1.7112*%
%ADD17C,2.3016*%
%ADD18MACRO1,0.1016X0.75X0.75X0.75X-0.75*%
%ADD19C,1.6016*%
%ADD20O,2.7015948X1.9015964*%
%ADD21MACRO1,0.1016X-1.3X-0.9X-1.3X0.9*%

%LPD*%
D10*
G01*
X2298700Y9042400D03*
G01*
X2298700Y9296400D03*
G01*
X3683002Y9042394D03*
G01*
X3683002Y9296394D03*
D11*
G01*
X3247994Y8512820D03*
G01*
X4117995Y8512820D03*
G01*
X5503971Y7068004D03*
G01*
X4703973Y7068004D03*
D12*
G01*
X2298951Y7273363D03*
G01*
X2298951Y7033079D03*
D13*
G01*
X2250897Y7974444D03*
G01*
X2250897Y8101444D03*
D14*
G01*
X2250897Y8228443D03*
D15*
G01*
X3172995Y7564607D03*
G01*
X4193009Y7564607D03*
G01*
X3172995Y7093000D03*
G01*
X4193009Y7093000D03*
G01*
X3172995Y8036214D03*
G01*
X4193009Y8036214D03*
G01*
X4593973Y8054228D03*
G01*
X5613986Y8054228D03*
G01*
X5613986Y7548618D03*
G01*
X4593973Y7548618D03*
G01*
X5435600Y10742193D03*
G01*
X5435600Y11762206D03*
D16*
G01*
X4819850Y10661700D03*
G01*
X2533850Y10661700D03*
G01*
X4819850Y12439700D03*
G01*
X4819850Y12185700D03*
G01*
X4819850Y11931700D03*
G01*
X4819850Y11677700D03*
G01*
X4819850Y11423700D03*
G01*
X4819850Y11169700D03*
G01*
X4819850Y10915700D03*
G01*
X2533850Y12439700D03*
G01*
X2533850Y12185700D03*
G01*
X2533850Y11931700D03*
G01*
X2533850Y11677700D03*
G01*
X2533850Y11423700D03*
G01*
X2533850Y11169700D03*
G01*
X2533850Y10915700D03*
D11*
G01*
X1079500Y10845800D03*
G01*
X1333500Y10845800D03*
G01*
X1079500Y10591800D03*
G01*
X1333500Y10591800D03*
G01*
X1079500Y10337800D03*
G01*
X1333500Y10337800D03*
G01*
X1079500Y10083800D03*
G01*
X1333500Y10083800D03*
G01*
X1079500Y9829800D03*
G01*
X1333500Y9829800D03*
G01*
X1079500Y9575800D03*
G01*
X1333500Y9575800D03*
G01*
X1079500Y9321800D03*
G01*
X1333500Y9321800D03*
G01*
X1079500Y9067800D03*
G01*
X1333500Y9067800D03*
D17*
G01*
X6348577Y9705200D03*
G01*
X6348577Y9205201D03*
G01*
X1016000Y7370000D03*
G01*
X1016000Y7869999D03*
G01*
X1016000Y11946001D03*
G01*
X1016000Y12446000D03*
G01*
X6348577Y12435700D03*
G01*
X6348577Y11935701D03*
G01*
X6348577Y7851000D03*
G01*
X6348577Y7351001D03*
D18*
G01*
X4722977Y9301901D03*
D19*
G01*
X4722977Y9047901D03*
G01*
X4722977Y8793901D03*
G01*
X4722977Y8539901D03*
G01*
X5484977Y9301901D03*
G01*
X5484977Y9047901D03*
G01*
X5484977Y8793901D03*
G01*
X5484977Y8539901D03*
D20*
G01*
X6243977Y10822449D03*
G01*
X6244968Y11076475D03*
D21*
G01*
X6243977Y10568449D03*
M02*
