M48
METRIC,LZ,000.000
;FILE_FORMAT=3:3
;TYPE=PLATED
;Layer: PTH_Through
;EasyEDA v6.5.22, 2023-02-12 11:26:09
;89482fe2ee7e448c8a158914ca70a71c,57889503967a4714bf52c07adae62c9a,10
;Gerber Generator version 0.2
;Holesize 1 = 0.901 mm
T01C0.901
;Holesize 2 = 1.000 mm
T02C1.000
;Holesize 3 = 1.200 mm
T03C1.200
%
G05
G90
T01
X013515Y048000
X013515Y046000
X054460Y048000
X054460Y046000
T02
X045369Y058039G85X045369Y058039
X022509Y058039G85X022509Y058039
X045369Y075819G85X045369Y075819
X045369Y073279G85X045369Y073279
X045369Y070739G85X045369Y070739
X045369Y068199G85X045369Y068199
X045369Y065659G85X045369Y065659
X045369Y063119G85X045369Y063119
X045369Y060579G85X045369Y060579
X022509Y075819G85X022509Y075819
X022509Y073279G85X022509Y073279
X022509Y070739G85X022509Y070739
X022509Y068199G85X022509Y068199
X022509Y065659G85X022509Y065659
X022509Y063119G85X022509Y063119
X022509Y060579G85X022509Y060579
X013270Y055110
X010730Y055110
X013270Y057650
X010730Y057650
X013270Y060190
X010730Y060190
X013270Y062730
X010730Y062730
X013270Y065270
X010730Y065270
X013270Y067810
X010730Y067810
X013270Y070350
X010730Y070350
X013270Y072890
X010730Y072890
T03
X054730Y072894
X057270Y072894
X054730Y070354
X057270Y070354
X054730Y067814
X057270Y067814
X054730Y065274
X057270Y065274
X054730Y062734
X057270Y062734
X054730Y060194
X057270Y060194
X054730Y057654
X057270Y057654
X054730Y055114
X057270Y055114
M30
