G04 Layer: BottomLayer*
G04 EasyEDA v6.5.22, 2023-02-12 11:26:09*
G04 89482fe2ee7e448c8a158914ca70a71c,57889503967a4714bf52c07adae62c9a,10*
G04 Gerber Generator version 0.2*
G04 Scale: 100 percent, Rotated: No, Reflected: No *
G04 Dimensions in millimeters *
G04 leading zeros omitted , absolute positions ,4 integer and 5 decimal *
%FSLAX45Y45*%
%MOMM*%

%ADD10C,0.5000*%
%ADD11C,1.0000*%
%ADD12R,1.8000X1.8000*%
%ADD13C,1.8000*%
%ADD14R,1.4000X1.4000*%
%ADD15C,1.4000*%
%ADD16C,1.5080*%
%ADD17C,0.6100*%

%LPD*%
D10*
X1073000Y7034987D02*
G01*
X939243Y7168743D01*
X939243Y7704073D01*
X1327000Y7288987D02*
G01*
X1956183Y6659803D01*
X1956183Y6476314D01*
X5726991Y7289393D02*
G01*
X5595622Y7420762D01*
X5356786Y7420762D01*
X5009517Y7073493D01*
X5009517Y6935698D01*
X1073000Y7288987D02*
G01*
X1238684Y7454671D01*
X2292301Y7454671D01*
X2389101Y7357871D01*
X2389101Y6450101D01*
X2250899Y6311900D01*
X3248789Y6780631D02*
G01*
X3248789Y5274614D01*
D11*
X4536899Y5803900D02*
G01*
X4536899Y5470525D01*
X5407433Y4599990D01*
X5445991Y4599990D01*
X1327000Y5510987D02*
G01*
X1327000Y4969535D01*
X1351460Y4945075D01*
X1351460Y4799990D02*
G01*
X1351460Y4945075D01*
X4536899Y6057900D02*
G01*
X5445991Y5148808D01*
X5445991Y4799990D01*
D10*
X1073000Y6780987D02*
G01*
X856642Y6997344D01*
X856642Y7727365D01*
X906604Y7777327D01*
X3107692Y7777327D01*
X4192120Y6692900D01*
X4876497Y6692900D01*
X5332935Y7149337D01*
X5332935Y7289393D01*
X5472991Y7289393D02*
G01*
X5332935Y7289393D01*
X1073000Y6272987D02*
G01*
X786843Y6559143D01*
X786843Y7752410D01*
X881077Y7846644D01*
X3764155Y7846644D01*
X4536899Y7073900D01*
X2250899Y6057900D02*
G01*
X2092429Y5899429D01*
X2092429Y5161076D01*
X1413588Y4482236D01*
X1309245Y4482236D01*
X933223Y4858257D01*
X933223Y5879211D01*
X1073000Y6018987D01*
X1327000Y5764987D02*
G01*
X1345110Y5764987D01*
X2112698Y6532575D01*
X2112698Y6935698D01*
X2250899Y7073900D01*
D12*
G01*
X5472988Y7289383D03*
D13*
G01*
X5726988Y7289383D03*
G01*
X5472988Y7035383D03*
G01*
X5726988Y7035383D03*
G01*
X5472988Y6781383D03*
G01*
X5726988Y6781383D03*
G01*
X5472988Y6527383D03*
G01*
X5726988Y6527383D03*
G01*
X5472988Y6273383D03*
G01*
X5726988Y6273383D03*
G01*
X5472988Y6019383D03*
G01*
X5726988Y6019383D03*
G01*
X5472988Y5765383D03*
G01*
X5726988Y5765383D03*
G01*
X5472988Y5511383D03*
G01*
X5726988Y5511383D03*
D14*
G01*
X1351455Y4799990D03*
D15*
G01*
X1351455Y4599990D03*
D14*
G01*
X5445988Y4799990D03*
D15*
G01*
X5445988Y4599990D03*
D16*
G01*
X4536887Y5803900D03*
G01*
X2250887Y5803900D03*
G01*
X4536887Y7581900D03*
G01*
X4536887Y7327900D03*
G01*
X4536887Y7073900D03*
G01*
X4536887Y6819900D03*
G01*
X4536887Y6565900D03*
G01*
X4536887Y6311900D03*
G01*
X4536887Y6057900D03*
G01*
X2250887Y7581900D03*
G01*
X2250887Y7327900D03*
G01*
X2250887Y7073900D03*
G01*
X2250887Y6819900D03*
G01*
X2250887Y6565900D03*
G01*
X2250887Y6311900D03*
G01*
X2250887Y6057900D03*
D13*
G01*
X1326997Y5510987D03*
G01*
X1072997Y5510987D03*
G01*
X1326997Y5764987D03*
G01*
X1072997Y5764987D03*
G01*
X1326997Y6018987D03*
G01*
X1072997Y6018987D03*
G01*
X1326997Y6272987D03*
G01*
X1072997Y6272987D03*
G01*
X1326997Y6526987D03*
G01*
X1072997Y6526987D03*
G01*
X1326997Y6780987D03*
G01*
X1072997Y6780987D03*
G01*
X1326997Y7034987D03*
G01*
X1072997Y7034987D03*
G01*
X1326997Y7288987D03*
G01*
X1072997Y7288987D03*
D17*
G01*
X3248789Y6780631D03*
G01*
X3248789Y5274614D03*
G01*
X5009517Y6935698D03*
G01*
X1956183Y6476314D03*
G01*
X939243Y7704073D03*
M02*
