G04 Layer: TopLayer*
G04 EasyEDA v6.5.22, 2023-02-12 11:26:09*
G04 89482fe2ee7e448c8a158914ca70a71c,57889503967a4714bf52c07adae62c9a,10*
G04 Gerber Generator version 0.2*
G04 Scale: 100 percent, Rotated: No, Reflected: No *
G04 Dimensions in millimeters *
G04 leading zeros omitted , absolute positions ,4 integer and 5 decimal *
%FSLAX45Y45*%
%MOMM*%

%ADD10C,0.2032*%
%ADD11C,0.5000*%
%ADD12C,1.0000*%
%ADD13R,1.8000X1.8000*%
%ADD14C,1.8000*%
%ADD15R,1.4000X1.4000*%
%ADD16C,1.4000*%
%ADD17C,1.5080*%
%ADD18C,0.6100*%

%LPD*%
D10*
X2223249Y4277360D02*
G01*
X2204707Y4295902D01*
X2177021Y4305045D01*
X2140191Y4305045D01*
X2112505Y4295902D01*
X2093963Y4277360D01*
X2093963Y4258818D01*
X2103107Y4240276D01*
X2112505Y4231131D01*
X2130793Y4221987D01*
X2186419Y4203445D01*
X2204707Y4194302D01*
X2214105Y4184904D01*
X2223249Y4166615D01*
X2223249Y4138676D01*
X2204707Y4120387D01*
X2177021Y4110989D01*
X2140191Y4110989D01*
X2112505Y4120387D01*
X2093963Y4138676D01*
X2284209Y4184904D02*
G01*
X2394953Y4184904D01*
X2394953Y4203445D01*
X2385809Y4221987D01*
X2376665Y4231131D01*
X2358123Y4240276D01*
X2330437Y4240276D01*
X2311895Y4231131D01*
X2293353Y4212589D01*
X2284209Y4184904D01*
X2284209Y4166615D01*
X2293353Y4138676D01*
X2311895Y4120387D01*
X2330437Y4110989D01*
X2358123Y4110989D01*
X2376665Y4120387D01*
X2394953Y4138676D01*
X2455913Y4240276D02*
G01*
X2455913Y4110989D01*
X2455913Y4203445D02*
G01*
X2483599Y4231131D01*
X2502141Y4240276D01*
X2529827Y4240276D01*
X2548369Y4231131D01*
X2557513Y4203445D01*
X2557513Y4110989D01*
X2557513Y4203445D02*
G01*
X2585199Y4231131D01*
X2603741Y4240276D01*
X2631427Y4240276D01*
X2649969Y4231131D01*
X2659113Y4203445D01*
X2659113Y4110989D01*
X2831071Y4240276D02*
G01*
X2831071Y4110989D01*
X2831071Y4212589D02*
G01*
X2812529Y4231131D01*
X2793987Y4240276D01*
X2766301Y4240276D01*
X2747759Y4231131D01*
X2729471Y4212589D01*
X2720073Y4184904D01*
X2720073Y4166615D01*
X2729471Y4138676D01*
X2747759Y4120387D01*
X2766301Y4110989D01*
X2793987Y4110989D01*
X2812529Y4120387D01*
X2831071Y4138676D01*
X2965945Y4305045D02*
G01*
X2947403Y4305045D01*
X2928861Y4295902D01*
X2919717Y4268215D01*
X2919717Y4110989D01*
X2892031Y4240276D02*
G01*
X2956547Y4240276D01*
X3072879Y4240276D02*
G01*
X3054591Y4231131D01*
X3036049Y4212589D01*
X3026905Y4184904D01*
X3026905Y4166615D01*
X3036049Y4138676D01*
X3054591Y4120387D01*
X3072879Y4110989D01*
X3100819Y4110989D01*
X3119107Y4120387D01*
X3137649Y4138676D01*
X3146793Y4166615D01*
X3146793Y4184904D01*
X3137649Y4212589D01*
X3119107Y4231131D01*
X3100819Y4240276D01*
X3072879Y4240276D01*
X3207753Y4240276D02*
G01*
X3207753Y4110989D01*
X3207753Y4184904D02*
G01*
X3217151Y4212589D01*
X3235439Y4231131D01*
X3253981Y4240276D01*
X3281667Y4240276D01*
X3342627Y4305045D02*
G01*
X3342627Y4110989D01*
X3435083Y4240276D02*
G01*
X3342627Y4148073D01*
X3379711Y4184904D02*
G01*
X3444227Y4110989D01*
X3514585Y4240276D02*
G01*
X3569957Y4110989D01*
X3625329Y4240276D02*
G01*
X3569957Y4110989D01*
X3551415Y4074160D01*
X3532873Y4055618D01*
X3514585Y4046473D01*
X3505187Y4046473D01*
X3686289Y4305045D02*
G01*
X3686289Y4110989D01*
X3686289Y4305045D02*
G01*
X3815575Y4110989D01*
X3815575Y4305045D02*
G01*
X3815575Y4110989D01*
X4015219Y4258818D02*
G01*
X4005821Y4277360D01*
X3987279Y4295902D01*
X3968991Y4305045D01*
X3931907Y4305045D01*
X3913619Y4295902D01*
X3895077Y4277360D01*
X3885679Y4258818D01*
X3876535Y4231131D01*
X3876535Y4184904D01*
X3885679Y4157218D01*
X3895077Y4138676D01*
X3913619Y4120387D01*
X3931907Y4110989D01*
X3968991Y4110989D01*
X3987279Y4120387D01*
X4005821Y4138676D01*
X4015219Y4157218D01*
X4015219Y4184904D01*
X3968991Y4184904D02*
G01*
X4015219Y4184904D01*
X4218419Y4240276D02*
G01*
X4273791Y4110989D01*
X4329163Y4240276D02*
G01*
X4273791Y4110989D01*
X4390123Y4268215D02*
G01*
X4408665Y4277360D01*
X4436351Y4305045D01*
X4436351Y4110989D01*
X4506455Y4157218D02*
G01*
X4497311Y4148073D01*
X4506455Y4138676D01*
X4515599Y4148073D01*
X4506455Y4157218D01*
X4632185Y4305045D02*
G01*
X4604499Y4295902D01*
X4585957Y4268215D01*
X4576559Y4221987D01*
X4576559Y4194302D01*
X4585957Y4148073D01*
X4604499Y4120387D01*
X4632185Y4110989D01*
X4650473Y4110989D01*
X4678159Y4120387D01*
X4696701Y4148073D01*
X4706099Y4194302D01*
X4706099Y4221987D01*
X4696701Y4268215D01*
X4678159Y4295902D01*
X4650473Y4305045D01*
X4632185Y4305045D01*
X5682995Y4677384D02*
G01*
X5682995Y4511014D01*
X5599938Y4594326D02*
G01*
X5766308Y4594326D01*
X5599938Y4794097D02*
G01*
X5766308Y4794097D01*
X1083005Y4677384D02*
G01*
X1083005Y4511014D01*
X999947Y4594326D02*
G01*
X1166317Y4594326D01*
X999947Y4794097D02*
G01*
X1166317Y4794097D01*
D11*
X5726991Y6781393D02*
G01*
X5866843Y6921245D01*
X5866843Y7350505D01*
X5513275Y7704073D01*
X939243Y7704073D01*
X1073000Y6526987D02*
G01*
X1073000Y6568668D01*
X933376Y6708292D01*
X933376Y7337475D01*
X1050978Y7455077D01*
X5053307Y7455077D01*
X5472991Y7035393D01*
X1073000Y5510987D02*
G01*
X1216129Y5367858D01*
X3592857Y5367858D01*
X4536899Y6311900D01*
X4536899Y6819900D02*
G01*
X4409747Y6692747D01*
X1746760Y6692747D01*
X1327000Y6272987D01*
X1956183Y6476314D02*
G01*
X1993597Y6438900D01*
X5130497Y6438900D01*
X5472991Y6781393D01*
X1327000Y6780987D02*
G01*
X1481711Y6935698D01*
X5009517Y6935698D01*
X3248789Y6780631D02*
G01*
X2290168Y6780631D01*
X2250899Y6819900D01*
X1073000Y5764987D02*
G01*
X932512Y5624499D01*
X932512Y5455361D01*
X1113259Y5274614D01*
X3248789Y5274614D01*
D12*
X5445991Y4599990D02*
G01*
X1351460Y4599990D01*
X5445991Y4799990D02*
G01*
X1351460Y4799990D01*
D13*
G01*
X5472988Y7289383D03*
D14*
G01*
X5726988Y7289383D03*
G01*
X5472988Y7035383D03*
G01*
X5726988Y7035383D03*
G01*
X5472988Y6781383D03*
G01*
X5726988Y6781383D03*
G01*
X5472988Y6527383D03*
G01*
X5726988Y6527383D03*
G01*
X5472988Y6273383D03*
G01*
X5726988Y6273383D03*
G01*
X5472988Y6019383D03*
G01*
X5726988Y6019383D03*
G01*
X5472988Y5765383D03*
G01*
X5726988Y5765383D03*
G01*
X5472988Y5511383D03*
G01*
X5726988Y5511383D03*
D15*
G01*
X1351455Y4799990D03*
D16*
G01*
X1351455Y4599990D03*
D15*
G01*
X5445988Y4799990D03*
D16*
G01*
X5445988Y4599990D03*
D17*
G01*
X4536887Y5803900D03*
G01*
X2250887Y5803900D03*
G01*
X4536887Y7581900D03*
G01*
X4536887Y7327900D03*
G01*
X4536887Y7073900D03*
G01*
X4536887Y6819900D03*
G01*
X4536887Y6565900D03*
G01*
X4536887Y6311900D03*
G01*
X4536887Y6057900D03*
G01*
X2250887Y7581900D03*
G01*
X2250887Y7327900D03*
G01*
X2250887Y7073900D03*
G01*
X2250887Y6819900D03*
G01*
X2250887Y6565900D03*
G01*
X2250887Y6311900D03*
G01*
X2250887Y6057900D03*
D14*
G01*
X1326997Y5510987D03*
G01*
X1072997Y5510987D03*
G01*
X1326997Y5764987D03*
G01*
X1072997Y5764987D03*
G01*
X1326997Y6018987D03*
G01*
X1072997Y6018987D03*
G01*
X1326997Y6272987D03*
G01*
X1072997Y6272987D03*
G01*
X1326997Y6526987D03*
G01*
X1072997Y6526987D03*
G01*
X1326997Y6780987D03*
G01*
X1072997Y6780987D03*
G01*
X1326997Y7034987D03*
G01*
X1072997Y7034987D03*
G01*
X1326997Y7288987D03*
G01*
X1072997Y7288987D03*
D18*
G01*
X3248789Y6780631D03*
G01*
X3248789Y5274614D03*
G01*
X5009517Y6935698D03*
G01*
X1956183Y6476314D03*
G01*
X939243Y7704073D03*
M02*
